<?xml version="1.0" standalone="no"?>
<!DOCTYPE svg PUBLIC "-//W3C//DTD SVG 20010904//EN"
 "http://www.w3.org/TR/2001/REC-SVG-20010904/DTD/svg10.dtd">
<svg version="1.0" xmlns="http://www.w3.org/2000/svg"
 width="512.000000pt" height="512.000000pt" viewBox="0 0 512.000000 512.000000"
 preserveAspectRatio="xMidYMid meet">
<metadata>
Created by potrace 1.14, written by Peter Selinger 2001-2017
</metadata>
<g transform="translate(0.000000,512.000000) scale(0.100000,-0.100000)"
fill="#000000" stroke="none">
<path d="M1615 4693 c-99 -4 -258 -24 -303 -37 -9 -3 -28 -7 -42 -10 -151 -26
-380 -151 -508 -277 -135 -133 -247 -334 -288 -519 -4 -19 -8 -37 -9 -40 -9
-32 -24 -126 -31 -195 -8 -72 -9 -2038 -1 -2112 43 -398 198 -684 473 -868
157 -106 313 -161 549 -196 87 -13 2063 -18 2165 -5 76 9 167 24 195 32 6 2
24 6 40 9 17 3 55 14 86 25 438 149 699 502 745 1010 8 88 9 2059 1 2110 -3
19 -9 58 -12 85 -17 124 -59 265 -115 380 -168 349 -499 559 -949 601 -67 6
-1856 12 -1996 7z m466 -1002 c26 -10 60 -44 78 -78 16 -31 14 -99 -4 -136
-20 -42 -524 -543 -559 -557 -41 -15 -108 -12 -136 6 -42 28 -211 197 -227
228 -35 66 -24 133 30 186 64 62 157 60 229 -6 21 -19 40 -34 43 -34 3 0 92
88 200 195 135 134 205 197 228 204 34 10 80 7 118 -8z m1735 -321 c92 -46
117 -163 52 -245 -44 -56 -38 -56 -683 -56 -531 0 -598 2 -627 17 -108 54
-121 195 -26 267 18 14 42 27 53 30 11 2 284 5 606 5 562 1 587 0 625 -18z
m-1703 -1192 c15 -11 34 -32 42 -48 19 -37 19 -113 1 -148 -8 -15 -133 -145
-278 -289 -190 -189 -271 -263 -293 -268 -16 -4 -37 -9 -46 -11 -39 -10 -93
25 -196 126 -58 58 -112 119 -119 136 -19 44 -9 110 21 150 66 86 184 88 260
4 10 -11 23 -20 28 -20 6 0 95 84 198 187 103 102 195 191 205 196 52 29 123
23 177 -15z m1721 -312 c60 -45 85 -117 63 -181 -14 -44 -63 -91 -105 -102
-23 -7 -255 -10 -622 -9 -516 2 -589 4 -615 18 -81 43 -110 134 -68 215 24 46
61 74 109 82 20 3 299 6 619 5 l583 0 36 -28z"/>
</g>
</svg>
